<svg width="473" height="310" viewBox="0 0 473 310" fill="none" xmlns="http://www.w3.org/2000/svg">
<path fill-rule="evenodd" clip-rule="evenodd" d="M244.607 16.1372C283.719 18.4973 327.292 0.544192 359.324 19.0925C391.396 37.6638 383.963 77.8972 401.206 106.816C422.815 143.059 477.307 169.123 472.728 209.288C468.111 249.791 423.444 281.991 379.148 300.328C338.092 317.324 290.365 307.534 244.607 303.724C203.895 300.334 165.496 293.904 128.56 279.463C83.5437 261.863 28.4651 248.881 8.50364 211.414C-11.7871 173.329 8.06582 129.038 28.0719 90.8519C46.6586 55.3753 73.5157 19.4447 116.927 4.4659C157.387 -9.49473 200.827 13.4955 244.607 16.1372Z" fill="#FEC68D"/>
<path d="M54.8522 171.793V127.442C54.8522 126.443 57.2528 125.944 62.0539 125.944C66.9026 125.944 69.327 126.443 69.327 127.442V162.381H80.3078C81.1635 162.381 81.7577 163.498 82.0904 165.732C82.233 166.826 82.3043 167.943 82.3043 169.083C82.3043 170.224 82.233 171.389 82.0904 172.577C81.7101 174.859 81.0922 176 80.2365 176H58.2748C57.229 176 56.3971 175.572 55.7791 174.717C55.1612 173.861 54.8522 172.886 54.8522 171.793ZM92.4702 171.793C89.523 168.513 88.0494 163.973 88.0494 158.174C88.0494 152.374 89.523 147.835 92.4702 144.555C95.465 141.275 99.4818 139.635 104.521 139.635C109.56 139.635 113.553 141.275 116.5 144.555C119.447 147.835 120.921 152.374 120.921 158.174C120.921 163.973 119.447 168.513 116.5 171.793C113.553 175.073 109.56 176.713 104.521 176.713C99.4818 176.713 95.465 175.073 92.4702 171.793ZM104.521 151.543C101.859 151.543 100.528 153.729 100.528 158.103C100.528 162.476 101.859 164.663 104.521 164.663C107.23 164.663 108.585 162.476 108.585 158.103C108.585 153.729 107.23 151.543 104.521 151.543ZM142.29 176C137.679 176 134.114 174.526 131.595 171.579C129.075 168.584 127.815 164.187 127.815 158.388C127.815 152.541 129.455 147.977 132.735 144.697C136.063 141.37 140.46 139.706 145.927 139.706C151.441 139.706 155.981 140.918 159.546 143.343V178.852C159.546 182.37 158.12 185.056 155.268 186.91C152.415 188.811 148.755 189.762 144.287 189.762C139.818 189.762 135.825 189.191 132.308 188.05C131.832 186.91 131.595 185.888 131.595 184.984C131.595 181.942 132.094 179.708 133.092 178.282C136.277 179.66 139.676 180.35 143.289 180.35C145.903 180.35 147.21 179.423 147.21 177.569V175.43C145.166 175.81 143.526 176 142.29 176ZM145.57 151.329C142.385 151.329 140.793 153.729 140.793 158.53C140.793 161.525 141.411 163.474 142.647 164.377C143.455 164.995 144.263 165.304 145.071 165.304C145.879 165.304 146.592 165.233 147.21 165.09V151.543C146.64 151.4 146.093 151.329 145.57 151.329ZM182.194 175.572C182.194 175.952 180.007 176.143 175.634 176.143C171.308 176.143 169.145 175.976 169.145 175.643V140.633C169.145 140.3 171.308 140.134 175.634 140.134C180.007 140.134 182.194 140.277 182.194 140.562V175.572ZM182.194 136.355C182.194 136.688 180.007 136.854 175.634 136.854C171.308 136.854 169.145 136.711 169.145 136.426V126.158C169.145 125.683 171.308 125.445 175.634 125.445C180.007 125.445 182.194 125.588 182.194 125.873V136.355ZM206.754 175.572C206.754 175.905 205.043 176.071 201.62 176.071C196.866 175.929 194.489 175.667 194.489 175.287V152.184H192.636C191.4 152.184 190.592 151.139 190.211 149.047C190.116 148.429 190.069 147.811 190.069 147.193C190.069 145.719 190.354 144.246 190.924 142.772C191.78 140.681 193.111 139.635 194.917 139.635C196.724 139.635 198.34 140.063 199.766 140.918C201.192 141.774 202.143 142.63 202.618 143.485C205.613 140.918 209.178 139.635 213.314 139.635C217.449 139.635 220.444 140.752 222.298 142.986C224.152 145.22 225.079 148.881 225.079 153.967V175.358C225.079 175.929 223.035 176.214 218.947 176.214C214.906 176.214 212.886 175.929 212.886 175.358V154.751C212.886 152.374 212.054 151.186 210.39 151.186C209.915 151.186 209.249 151.4 208.394 151.828C207.538 152.208 206.992 152.493 206.754 152.683V175.572ZM290.127 174.788C290.127 175.596 287.726 176 282.925 176C278.124 176 275.724 175.596 275.724 174.788V158.388H265.741V174.788C265.741 175.596 263.34 176 258.539 176C253.738 176 251.337 175.596 251.337 174.788V127.513C251.337 126.515 253.738 126.016 258.539 126.016C263.34 126.016 265.741 126.515 265.741 127.513V144.27H275.724V127.656C275.724 126.99 276.912 126.515 279.289 126.23C280.525 126.134 281.737 126.087 282.925 126.087L286.562 126.23C288.939 126.515 290.127 126.99 290.127 127.656V174.788ZM327.031 174.075C324.036 175.834 320.186 176.713 315.48 176.713C310.773 176.713 306.804 175.121 303.572 171.936C300.339 168.703 298.723 164.259 298.723 158.602C298.723 152.897 300.268 148.31 303.358 144.84C306.495 141.37 310.441 139.635 315.194 139.635C319.948 139.635 323.608 140.847 326.175 143.271C328.79 145.696 330.097 148.643 330.097 152.113C330.097 159.814 325.676 163.664 316.834 163.664H311.914C311.914 165.09 312.295 166.089 313.055 166.659C313.863 167.182 315.028 167.443 316.549 167.443C319.877 167.443 323.038 166.683 326.033 165.162C326.08 165.114 326.294 165.447 326.674 166.16C327.815 168.204 328.386 169.939 328.386 171.365C328.386 172.744 327.934 173.647 327.031 174.075ZM318.118 153.468C318.118 151.471 317.143 150.473 315.194 150.473C314.291 150.473 313.507 150.758 312.841 151.329C312.223 151.852 311.914 152.636 311.914 153.682V155.892H315.765C317.333 155.892 318.118 155.084 318.118 153.468ZM353.58 175.929C353.58 176.261 351.417 176.428 347.091 176.428C342.765 176.333 340.602 176.143 340.602 175.857V152.184H338.677C337.916 152.184 337.298 151.733 336.823 150.83C336.395 149.879 336.181 148.714 336.181 147.336C336.181 142.202 337.702 139.635 340.745 139.635C342.884 139.635 344.666 140.3 346.093 141.631C347.519 142.915 348.232 144.388 348.232 146.052C349.23 144.103 350.561 142.558 352.225 141.417C353.936 140.229 355.671 139.635 357.43 139.635C360.187 139.635 361.851 140.348 362.421 141.774C362.564 142.154 362.635 142.725 362.635 143.485C362.635 144.198 362.397 145.506 361.922 147.407C361.494 149.308 361.043 150.687 360.567 151.543C360.092 152.398 359.807 152.826 359.712 152.826C359.617 152.826 359.165 152.66 358.357 152.327C357.596 151.947 356.907 151.757 356.289 151.757C354.483 151.757 353.58 153.183 353.58 156.035V175.929ZM396.397 174.075C393.402 175.834 389.551 176.713 384.845 176.713C380.139 176.713 376.17 175.121 372.938 171.936C369.705 168.703 368.089 164.259 368.089 158.602C368.089 152.897 369.634 148.31 372.724 144.84C375.861 141.37 379.806 139.635 384.56 139.635C389.314 139.635 392.974 140.847 395.541 143.271C398.155 145.696 399.463 148.643 399.463 152.113C399.463 159.814 395.042 163.664 386.2 163.664H381.28C381.28 165.09 381.66 166.089 382.421 166.659C383.229 167.182 384.394 167.443 385.915 167.443C389.242 167.443 392.404 166.683 395.398 165.162C395.446 165.114 395.66 165.447 396.04 166.16C397.181 168.204 397.751 169.939 397.751 171.365C397.751 172.744 397.3 173.647 396.397 174.075ZM387.484 153.468C387.484 151.471 386.509 150.473 384.56 150.473C383.657 150.473 382.873 150.758 382.207 151.329C381.589 151.852 381.28 152.636 381.28 153.682V155.892H385.131C386.699 155.892 387.484 155.084 387.484 153.468Z" fill="white"/>
</svg>
