<svg width="32" height="34" viewBox="0 0 32 34" fill="none" xmlns="http://www.w3.org/2000/svg">
<path fill-rule="evenodd" clip-rule="evenodd" d="M22.4983 12.6052H23.7747C25.1788 12.6052 26.3275 13.8427 26.3275 15.3552V29.1052C26.3275 30.6177 25.1788 31.8552 23.7747 31.8552H8.45784C7.0538 31.8552 5.90503 30.6177 5.90503 29.1052V15.3552C5.90503 13.8427 7.0538 12.6052 8.45784 12.6052H9.73425V9.85519C9.73425 6.06019 12.5934 2.98019 16.1163 2.98019C19.6392 2.98019 22.4983 6.06019 22.4983 9.85519V12.6052ZM16.1163 5.73019C13.9975 5.73019 12.2871 7.57269 12.2871 9.85519V12.6052H19.9455V9.85519C19.9455 7.57269 18.2351 5.73019 16.1163 5.73019ZM8.45784 29.1052V15.3552H23.7747V29.1052H8.45784ZM18.6691 22.2302C18.6691 23.7427 17.5203 24.9802 16.1163 24.9802C14.7122 24.9802 13.5635 23.7427 13.5635 22.2302C13.5635 20.7177 14.7122 19.4802 16.1163 19.4802C17.5203 19.4802 18.6691 20.7177 18.6691 22.2302Z" fill="#B7B4B4"/>
</svg>
