<svg width="33" height="33" viewBox="0 0 33 33" fill="none" xmlns="http://www.w3.org/2000/svg">
<path fill-rule="evenodd" clip-rule="evenodd" d="M16.5 5.5C13.4612 5.5 11 7.96125 11 11C11 14.0387 13.4612 16.5 16.5 16.5C19.5387 16.5 22 14.0387 22 11C22 7.96125 19.5387 5.5 16.5 5.5ZM19.25 11C19.25 9.4875 18.0125 8.25 16.5 8.25C14.9875 8.25 13.75 9.4875 13.75 11C13.75 12.5125 14.9875 13.75 16.5 13.75C18.0125 13.75 19.25 12.5125 19.25 11ZM24.75 23.375C24.475 22.3988 20.2125 20.625 16.5 20.625C12.7875 20.625 8.525 22.3988 8.25 23.3888V24.75H24.75V23.375ZM5.5 23.375C5.5 19.7175 12.8287 17.875 16.5 17.875C20.1713 17.875 27.5 19.7175 27.5 23.375V27.5H5.5V23.375Z" fill="#B7B4B4"/>
</svg>
